<svg width="98" height="167" viewBox="0 0 98 167" fill="none" xmlns="http://www.w3.org/2000/svg">
<g clip-path="url(#clip0_10_178)">
<path fill-rule="evenodd" clip-rule="evenodd" d="M58.6563 7.34854C58.7361 6.82364 58.5335 6.66856 57.9319 6.38226C57.3365 6.10788 56.8147 5.70228 56.256 5.35633C56.2131 5.3265 56.1762 5.26686 56.1271 5.25493C55.3229 5.14756 54.6784 4.52127 53.8189 4.58091C53.6102 4.59284 53.3831 4.55705 53.1989 4.47355C52.6219 4.19917 52.0141 4.15145 51.388 4.18724C50.4119 4.23496 49.4235 4.20514 48.4597 4.34829C47.6371 4.47355 46.8452 4.77178 46.0472 5.02827C45.464 5.21317 44.8747 5.41597 44.316 5.67246C43.9968 5.81561 43.7451 6.09595 43.4505 6.28682C42.4314 6.96083 41.4615 7.70642 40.7126 8.64885C40.1478 9.35268 39.4787 10.0088 39.2393 10.9393C39.141 11.3091 38.8402 11.6193 38.6806 11.9831C37.9992 13.528 37.7045 15.1563 37.7721 16.8324C37.8396 18.5145 37.9685 20.1965 38.1036 21.8786C38.257 23.8052 38.4473 25.7258 38.6376 27.6524C38.699 28.1952 38.8402 28.732 38.9016 29.2689C38.9876 29.9608 39.0121 30.6646 39.1103 31.3565C39.3559 33.1221 39.6321 34.8816 39.89 36.6412C39.9514 37.0767 39.982 37.5121 40.0434 37.9475C40.1724 38.8303 40.3013 39.7131 40.4486 40.5839C40.7433 42.3375 41.0502 44.0912 41.3387 45.8448C41.5413 47.0616 41.6886 48.2844 41.9035 49.4952C42.1859 51.046 42.5051 52.5909 42.812 54.1357C42.9716 54.929 43.1313 55.7224 43.2786 56.5157C43.3768 57.0704 43.1681 57.2553 42.5972 57.2314C42.1061 57.2135 41.615 57.2911 41.1239 57.2791C36.1576 57.2135 31.1913 57.13 26.2311 57.0644C23.9966 57.0406 21.7621 57.0167 19.5214 57.0465C18.8584 57.0525 18.1831 57.2076 17.5324 57.3626C16.8142 57.5297 16.1143 57.7623 15.4145 57.9889C15.0707 58.1023 14.7515 58.2752 14.42 58.4244C13.9289 58.6451 13.4255 58.8359 12.9529 59.0864C12.0443 59.5756 11.0928 60.0289 10.4053 60.8341C10.2825 60.9773 10.129 61.1264 9.95712 61.198C9.46601 61.3948 9.23888 61.8302 8.91352 62.1762C8.63113 62.4744 8.33033 62.7547 8.06636 63.0649C7.83923 63.3393 7.64892 63.6375 7.43406 63.9298C7.34198 64.061 7.23762 64.1803 7.13326 64.3056C7.10257 64.3354 7.04732 64.3473 7.03504 64.3772C6.80791 64.8126 6.57463 65.242 6.35977 65.6834C6.0958 66.2381 5.83797 66.7988 5.58014 67.3535C5.46965 67.6041 5.34687 67.8486 5.2732 68.1111C4.8619 69.4531 4.58566 70.819 4.49971 72.2148C4.43832 73.2825 4.38307 74.3502 4.36466 75.4178C4.16822 86.3034 3.97791 97.189 3.79375 108.075C3.70781 113.312 3.64028 118.549 3.56661 123.786C3.45611 131.23 3.35789 138.674 3.27195 146.124C3.25967 147 3.22284 147.889 3.35175 148.748C3.5175 149.905 3.79375 151.05 4.10683 152.184C4.30327 152.929 4.56724 153.681 4.94785 154.355C5.45737 155.279 5.87481 156.27 6.69127 157.033C7.20693 157.522 7.5507 158.178 8.05408 158.685C8.8951 159.544 9.79751 160.337 10.8657 160.946C11.3875 161.244 11.8601 161.626 12.3574 161.978C12.3819 161.99 12.4004 162.014 12.4249 162.025C13.137 162.294 13.843 162.574 14.5551 162.831C15.0401 163.004 15.525 163.201 16.0284 163.308C16.9124 163.499 17.8087 163.737 18.7111 163.773C22.2532 163.922 25.7953 164.012 29.3373 164.089C34.2177 164.197 39.0981 164.256 43.9784 164.358C44.9054 164.376 45.8323 164.489 46.7593 164.531C47.5021 164.566 48.2449 164.578 48.9938 164.584C54.5801 164.632 60.1665 164.662 65.7405 164.733C69.2335 164.781 72.7203 164.906 76.2072 164.954C77.5516 164.972 78.9144 164.966 80.2465 164.781C81.3147 164.638 82.4197 164.56 83.4387 164.089C83.9973 163.833 84.6542 163.761 85.219 163.511C86.0477 163.135 86.8396 162.658 87.6561 162.252C88.761 161.697 89.6021 160.827 90.4861 160.021C90.8544 159.699 91.1306 159.282 91.4499 158.912C91.8059 158.488 92.1865 158.083 92.518 157.647C92.8863 157.164 93.2055 156.645 93.5555 156.15C93.6844 155.959 93.8563 155.786 93.979 155.595C95.2129 153.687 95.5137 151.539 95.7593 149.35C96.1399 146.022 95.9803 142.7 96.0785 139.371C96.1767 136.115 96.2443 132.852 96.275 129.589C96.3118 126.78 96.2688 123.965 96.3056 121.161C96.3241 120.141 96.3425 119.121 96.8274 118.149C97.1405 117.529 97.116 116.813 96.895 116.133C96.6678 115.417 96.7047 114.767 97.1651 114.105C97.4168 113.747 97.4966 113.234 97.5211 112.781C97.5948 111.618 97.6562 110.449 97.6194 109.285C97.5518 106.476 97.4106 103.673 97.3124 100.863C97.3001 100.452 97.337 100.04 97.3922 99.6346C97.4045 99.5033 97.558 99.396 97.6501 99.2707C97.7299 99.396 97.8649 99.5093 97.8772 99.6346C97.9263 100.493 97.9754 101.358 97.9815 102.217C98.0061 105.838 98.0184 109.458 98.0184 113.073C98.0184 117.01 98.0122 120.941 97.9693 124.877C97.9631 125.504 97.6992 126.124 97.6071 126.756C97.515 127.418 97.4291 128.086 97.4291 128.754C97.4229 130.937 97.4904 133.114 97.4843 135.298C97.472 139.682 97.4597 144.072 97.3738 148.456C97.3492 149.565 97.0423 150.675 96.8397 151.778C96.588 153.132 95.9987 154.373 95.4646 155.631C95.2129 156.216 94.9919 156.818 94.685 157.379C94.3781 157.94 94.022 158.476 93.6291 158.983C92.917 159.878 92.1742 160.755 91.4253 161.626C91.2104 161.87 90.9342 162.055 90.6702 162.252C90.0809 162.711 89.4977 163.201 88.8654 163.612C88.5155 163.839 88.0735 163.94 87.6868 164.119C86.8457 164.495 86.0293 164.918 85.1698 165.252C84.0342 165.7 82.8801 166.141 81.7014 166.475C80.977 166.684 80.1851 166.696 79.4239 166.791C77.392 167.036 75.3539 167.06 73.3158 166.952C72.0082 166.887 70.7129 166.69 69.4115 166.636C67.9505 166.582 66.4833 166.588 65.0284 166.642C63.3464 166.702 61.6705 166.917 59.9884 166.94C57.5452 166.976 55.0958 166.905 52.6464 166.881C49.8778 166.851 47.1092 166.815 44.3345 166.785C41.9403 166.761 39.5523 166.702 37.1582 166.726C34.0949 166.749 31.0317 166.857 27.9684 166.887C25.3103 166.911 22.6522 166.881 19.9941 166.881C19.7117 166.881 19.4293 166.905 19.1469 166.875C18.5269 166.809 17.9007 166.714 17.2807 166.63C16.7405 166.559 16.188 166.505 15.6539 166.41C15.39 166.362 15.1383 166.231 14.8804 166.147C14.6472 166.07 14.4016 166.004 14.1622 165.932C13.8062 165.825 13.4501 165.724 13.1002 165.61C12.8853 165.545 12.6766 165.473 12.474 165.384C12.3144 165.312 12.1609 165.223 12.0075 165.127C11.94 165.079 11.8786 164.972 11.8172 164.978C10.9393 165.026 10.4666 164.298 9.78523 163.97C9.08541 163.636 8.45925 163.159 7.81467 162.717C6.72196 161.96 5.77045 161.035 4.92329 160.027C4.12525 159.079 3.38859 158.071 2.68262 157.051C2.36954 156.586 2.19766 156.025 1.97052 155.506C1.71883 154.945 1.461 154.385 1.24 153.818C0.423541 151.718 -0.0184537 149.547 0.0122404 147.287C0.0736285 142.419 0.128878 137.552 0.177988 132.679C0.233238 127.37 0.276209 122.068 0.32532 116.759C0.368292 111.636 0.398986 106.506 0.441957 101.376C0.491068 95.9901 0.552456 90.598 0.601566 85.2119C0.644538 81.2334 0.644538 77.2609 0.718204 73.2825C0.742759 71.8569 0.908507 70.4373 1.02514 69.0177C1.04356 68.8209 1.15406 68.63 1.22773 68.4391C1.30139 68.2304 1.42417 68.0335 1.44872 67.8248C1.60219 66.6318 2.25291 65.6118 2.66421 64.5143C2.89748 63.888 3.3272 63.3214 3.71394 62.7667C4.32783 61.8899 4.94171 61.0071 5.61698 60.184C6.0958 59.5994 6.6483 59.0745 7.22535 58.5794C7.96814 57.9412 8.73549 57.3209 9.54582 56.7662C10.1597 56.3486 10.8595 56.0444 11.5164 55.6866C11.9461 55.4599 12.3635 55.2094 12.7994 55.0006C13.3089 54.768 13.8123 54.5234 14.3464 54.3743C15.5312 54.0463 16.7159 53.6705 17.9314 53.5035C19.3311 53.3066 20.7614 53.2231 22.1734 53.2291C27.0292 53.241 31.8788 53.3126 36.7346 53.3723C37.2196 53.3782 37.7107 53.414 38.1957 53.4498C38.4412 53.4677 38.607 53.3961 38.564 53.1456C38.5026 52.7161 38.4166 52.2867 38.3307 51.8572C38.1772 51.0102 38.0115 50.1632 37.8642 49.3103C37.6432 48.0875 37.4099 46.8588 37.2196 45.6301C36.9986 44.2403 36.8328 42.8386 36.6057 41.4488C36.4768 40.6137 36.2435 39.7966 36.1085 38.9555C35.9366 37.858 35.9182 36.7307 35.6542 35.6571C35.3595 34.4164 35.2674 33.1757 35.1754 31.9172C35.1262 31.2849 34.8807 30.6706 34.8009 30.0383C34.5124 27.7717 34.2423 25.5051 34.009 23.2326C33.8617 21.7593 33.7757 20.28 33.6713 18.8068C33.6407 18.425 33.6407 18.0373 33.5793 17.6615C33.3767 16.4567 33.5793 15.2816 33.831 14.1125C34.0704 12.9673 34.3221 11.8161 34.5738 10.6709C34.5983 10.5695 34.6781 10.48 34.7272 10.3846C34.9851 9.85372 35.2367 9.31689 35.4946 8.78603C35.5375 8.6906 35.5621 8.57727 35.6235 8.49376C35.9427 8.04045 36.2681 7.58713 36.6057 7.14574C36.9924 6.6447 37.3792 6.14367 37.7966 5.66053C38.122 5.29071 38.4535 4.91494 38.8341 4.59881C39.4234 4.10374 40.0312 3.61463 40.6757 3.1971C41.6579 2.57081 42.6708 1.99223 43.6899 1.41962C43.9907 1.2526 44.3406 1.16313 44.6782 1.07366C45.6298 0.835074 46.5874 0.572627 47.5573 0.393685C49.0245 0.119309 50.504 -0.10735 51.9957 0.137203C53.1559 0.328074 54.3284 0.423509 55.4396 0.864898C56.0228 1.09752 56.6366 1.25857 57.2076 1.50909C57.76 1.75364 58.2757 2.0817 58.8098 2.36801C59.086 2.51712 59.4052 2.61256 59.6508 2.80343C60.6269 3.57884 61.6582 4.3125 62.5238 5.18931C63.3832 6.06613 64.1444 7.04434 64.703 8.15378C64.9732 8.6906 65.3046 9.1976 65.5563 9.74039C65.7896 10.2414 65.9615 10.7723 66.1457 11.2972C66.6368 12.6929 66.8578 14.1483 66.9253 15.6097C66.9683 16.5759 66.8762 17.5482 66.8025 18.5145C66.6797 19.946 66.5447 21.3835 66.3851 22.815C66.3053 23.5189 66.1395 24.2167 66.0474 24.9265C65.7773 26.9784 65.5318 29.0303 65.2617 31.0821C65.1266 32.114 64.9486 33.14 64.8258 34.1718C64.7583 34.7027 64.8565 35.2515 64.7644 35.7704C64.5496 37.0349 64.2672 38.2935 64.0032 39.558C63.9725 39.731 63.9111 39.898 63.8743 40.0769C63.4753 42.0811 63.0763 44.0792 62.6772 46.0834C62.444 47.2584 62.2475 48.4335 61.9897 49.5966C61.7564 50.6762 61.4556 51.7439 61.1978 52.8175C61.0811 53.3245 60.9645 53.8315 60.8601 54.3445C60.8049 54.6785 61.0382 54.8634 61.4863 54.8754C62.7263 54.9052 63.9664 54.9112 65.2003 54.9768C67.7356 55.1259 70.2771 55.3168 72.8124 55.4778C74.7707 55.5971 76.686 55.955 78.5829 56.4023C78.9389 56.4858 79.252 56.635 79.2152 57.0465C79.1845 57.4462 78.8714 57.5595 78.5154 57.6311C75.8757 58.1858 73.1807 58.2335 70.4981 58.2633C66.25 58.311 62.002 58.2931 57.7539 58.2991C57.404 58.2991 57.0541 58.2574 56.7042 58.2096C56.385 58.1679 56.2438 58.0546 56.3604 57.6847C56.5507 57.0704 56.6673 56.4322 56.8085 55.8059C57.0664 54.6547 57.3303 53.5154 57.5697 52.3642C57.7109 51.732 57.803 51.0937 57.9258 50.4674C58.0363 49.9008 58.1652 49.3401 58.288 48.7794C58.3187 48.6184 58.3801 48.4514 58.3739 48.2963C58.3616 47.7952 58.4292 47.33 58.6931 46.8767C58.8036 46.6858 58.7975 46.4293 58.8282 46.1967C58.9326 45.5525 59.0246 44.9083 59.1351 44.2641C59.1474 44.1687 59.1904 44.0792 59.2088 43.9838C59.4728 42.4747 59.7245 40.9597 60.0007 39.4506C60.2708 37.9296 60.5716 36.4146 60.8356 34.8876C60.9829 34.0645 61.075 33.2354 61.1978 32.4063C61.4986 30.4022 61.8362 28.4099 62.1247 26.3998C62.444 24.1273 62.7755 21.8547 62.9965 19.5702C63.1499 18.0313 63.1131 16.4805 63.1499 14.9357C63.1622 14.8164 63.1561 14.6553 63.0824 14.5778C62.7448 14.202 62.8614 13.7546 62.8246 13.3311C62.7509 12.4185 62.2537 11.6551 61.8546 10.8618C61.5661 10.2891 61.1609 9.76425 60.7681 9.23935C60.3506 8.68464 59.8964 8.15974 59.4789 7.61099C59.2702 7.31275 59.0431 7.16363 58.6563 7.34854Z" fill="black"/>
<path fill-rule="evenodd" clip-rule="evenodd" d="M51.5231 28.1534C50.3875 28.0043 49.3807 27.9149 48.3985 27.724C47.846 27.6166 47.3181 27.3542 46.8024 27.1215C46.2438 26.8651 45.6544 26.6265 45.1817 26.2567C44.5863 25.7914 44.0522 25.2427 43.5734 24.6641C43.2235 24.2406 42.9779 23.7217 42.7139 23.2326C42.3333 22.5466 41.9834 21.8547 41.8729 21.0674C41.7993 20.5544 41.6581 20.0474 41.5967 19.5344C41.4494 18.3355 41.7502 17.1784 42.0571 16.0451C42.2597 15.3054 42.585 14.542 43.0454 13.9276C43.5857 13.2118 44.1995 12.5378 44.9116 11.9414C45.8018 11.1898 46.8638 10.8438 47.8828 10.3726C47.981 10.3249 48.0915 10.2772 48.202 10.2653C50.0498 10.0804 51.9038 9.83581 53.6595 10.7007C54.3409 11.0347 55.0898 11.2972 55.6546 11.7684C56.1764 12.1978 56.8394 12.5319 57.1586 13.1939C57.2015 13.2834 57.3243 13.3371 57.4164 13.3967C57.754 13.6353 57.8154 14.0588 57.5515 14.363C57.2568 14.703 57.2813 15.1146 57.6067 15.4665C57.6988 15.5679 57.8338 15.6753 57.84 15.7826C57.8523 15.9437 57.7725 16.1107 57.7233 16.2777C57.6067 16.2061 57.4594 16.1524 57.3673 16.051C57.1463 15.7826 56.956 15.4904 56.7411 15.21C56.7043 15.1563 56.6491 15.0907 56.5938 15.0728C56.029 14.9058 56.029 14.4823 56.0413 14.0171C56.0474 13.856 55.9124 13.6473 55.7712 13.5399C55.3783 13.2238 54.9609 12.9255 54.525 12.6631C54.3163 12.5438 54.0523 12.508 53.8191 12.4722C53.2052 12.3827 52.5913 12.3529 51.9897 12.2396C51.6766 12.1799 51.4311 12.1799 51.1487 12.335C50.9338 12.4543 50.6514 12.4603 50.3936 12.4901C50.1849 12.514 49.9762 12.4782 49.7674 12.502C49.3684 12.5438 49.0553 12.7108 48.7545 12.9971C48.3432 13.3788 47.8337 13.6592 47.3733 13.9872C46.5139 14.5957 45.9061 15.4009 45.5685 16.3612C45.3721 16.91 45.3352 17.5124 45.2738 18.0969C45.1633 19.1348 45.4948 20.107 45.9123 21.0256C46.1026 21.461 46.1824 22.0575 46.8147 22.2186C46.8392 22.2245 46.8699 22.2484 46.8761 22.2722C47.0357 22.8568 47.6434 22.988 48.0302 23.334C48.1222 23.4175 48.2389 23.501 48.3555 23.5248C49.0185 23.662 49.6876 23.7992 50.3568 23.9125C51.1303 24.0438 51.916 24.1034 52.6772 24.2883C53.4016 24.4613 54.0401 24.348 54.6601 23.9901C54.7153 23.9543 54.7951 23.9125 54.8135 23.8529C54.9425 23.3518 55.4029 23.1968 55.7651 22.9224C56.2377 22.5705 56.6552 22.1529 57.1033 21.7593C57.1647 21.7056 57.2138 21.6101 57.2752 21.5863C57.9689 21.3417 58.6503 20.9839 59.4238 21.2463C59.5282 21.2821 59.6325 21.3358 59.7123 21.4073C60.0193 21.6638 60.2157 22.5645 60.1113 22.9522C59.829 24.0259 59.1598 24.9027 58.3986 25.6423C57.6128 26.3998 56.6613 26.9844 55.6116 27.4317C54.2119 28.0222 52.7939 27.9805 51.5231 28.1534Z" fill="black"/>
<path fill-rule="evenodd" clip-rule="evenodd" d="M57.5084 151.11C57.7171 150.812 57.4531 150.621 57.2076 150.341C56.6674 149.726 56.2131 149.04 55.722 148.384C55.544 148.157 55.3598 147.937 55.1818 147.71C54.2916 146.607 53.4138 145.497 52.5237 144.394C52.5114 144.376 52.4746 144.376 52.3641 144.346C52.315 144.513 52.2229 144.68 52.2167 144.847C52.1553 145.903 52.1062 146.953 52.0817 148.008C52.0571 148.79 52.0817 149.571 52.0571 150.347C52.0326 151.14 51.8054 151.349 50.989 151.39C50.8171 151.396 50.6513 151.432 50.4856 151.42C50.148 151.408 49.9454 151.253 49.884 150.907C49.8349 150.639 49.7366 150.382 49.6753 150.114C49.6384 149.971 49.5955 149.822 49.5955 149.667C49.6262 147.215 49.6507 144.764 49.706 142.312C49.7305 141.435 49.8471 140.564 49.8963 139.694C49.9208 139.312 49.8533 138.924 49.8901 138.542C49.9085 138.352 50.0375 138.059 50.1725 138.029C50.3505 137.988 50.6391 138.101 50.768 138.25C51.1915 138.721 51.5537 139.246 51.9528 139.735C52.5237 140.439 53.1253 141.125 53.6962 141.829C54.2487 142.515 54.7582 143.231 55.3046 143.917C55.722 144.436 56.1517 144.931 56.5876 145.426C57.226 146.141 57.8644 146.851 58.509 147.561C58.5397 147.597 58.6011 147.609 58.6993 147.662C58.73 147.519 58.773 147.406 58.773 147.293C58.773 146.899 58.7546 146.499 58.7546 146.106C58.7546 144.274 58.7484 142.443 58.7607 140.612C58.773 140.004 59.0247 139.831 59.6447 139.95C59.7859 139.974 59.9271 139.986 60.0621 140.004C60.8418 140.081 61.1917 140.374 61.2224 141.155C61.2838 142.688 61.3267 144.221 61.3329 145.76C61.3329 146.976 61.2776 148.199 61.2224 149.416C61.1978 149.84 61.1794 150.287 61.0259 150.669C60.854 151.104 60.5778 151.51 60.2709 151.868C60.0007 152.184 59.5465 152.172 59.2088 152.035C58.8282 151.879 58.5152 151.569 58.1591 151.349C57.9811 151.253 57.7662 151.199 57.5084 151.11Z" fill="black"/>
<path fill-rule="evenodd" clip-rule="evenodd" d="M19.3864 138.465C20.4485 138.441 21.492 138.59 22.4129 139.085C23.0513 139.425 23.5915 139.944 24.1624 140.397C24.85 140.946 25.1569 141.739 25.5621 142.467C25.5866 142.503 25.6112 142.539 25.6235 142.58C25.8997 143.803 26.2128 145.032 25.8199 146.285C25.648 146.833 25.4823 147.4 25.2183 147.907C24.9175 148.48 24.4817 148.963 23.9783 149.416C23.2109 150.12 22.2778 150.406 21.3509 150.722C20.5344 151.003 19.632 151.182 18.7664 150.997C17.643 150.758 16.3907 150.812 15.5067 149.875C15.4392 149.804 15.3103 149.768 15.1998 149.744C14.9112 149.678 14.635 149.595 14.5368 149.261C14.5184 149.195 14.4324 149.118 14.3587 149.094C13.837 148.897 13.751 148.432 13.5914 147.99C13.4134 147.519 13.1555 147.072 12.9591 146.607C12.8609 146.392 12.7627 146.147 12.7749 145.927C12.7934 145.533 12.7381 145.193 12.4127 144.931C12.3391 144.871 12.2531 144.787 12.2409 144.704C12.1426 143.905 11.983 143.105 12.4926 142.354C12.7258 142.02 12.8854 141.632 13.0942 141.274C13.5853 140.397 14.3465 139.825 15.2673 139.425C15.5067 139.318 15.7338 139.187 15.9671 139.055C17.0475 138.495 18.2385 138.56 19.3864 138.465ZM19.5829 141.268C18.6559 141.268 17.95 141.244 17.3422 141.692C17.2501 141.763 17.0967 141.757 16.9862 141.811C16.7652 141.912 16.5196 141.996 16.3416 142.151C15.5742 142.819 15.0463 143.648 14.9665 144.65C14.9174 145.265 14.9604 145.921 15.1445 146.505C15.3041 147.03 15.6847 147.495 16.0162 147.967C16.7959 149.1 17.9745 149.565 19.3128 149.661C19.7977 149.69 20.3073 149.577 20.7922 149.452C21.1606 149.35 21.492 149.136 21.8235 148.945C22.0016 148.843 22.1919 148.724 22.2962 148.557C22.7628 147.8 23.2232 147.036 23.6406 146.249C23.9107 145.742 23.8125 145.485 23.3644 145.068C23.2662 144.978 23.1986 144.847 23.1372 144.728C22.7935 144.078 22.4743 143.41 22.0998 142.777C21.9218 142.473 21.6701 142.205 21.4061 141.96C20.8352 141.441 20.1354 141.226 19.5829 141.268Z" fill="black"/>
<path fill-rule="evenodd" clip-rule="evenodd" d="M49.3745 119.241C49.9085 119.247 50.4426 119.27 50.9767 119.258C51.8607 119.235 52.6342 119.509 53.4077 119.921C53.9049 120.183 54.2671 120.499 54.5495 120.952C55.102 121.835 55.3598 122.784 55.2125 123.815C55.145 124.293 54.924 124.704 54.4329 124.919C54.3346 124.961 54.2241 125.026 54.1689 125.11C53.7514 125.73 53.0946 125.981 52.4193 126.213C52.1001 126.327 52.051 126.613 52.2106 126.959C52.5789 127.722 52.9166 128.492 53.2235 129.279C53.3893 129.691 53.9786 130.162 54.4451 130.198C54.6784 130.21 54.9362 130.204 55.145 130.281C55.3107 130.341 55.4335 130.514 55.5563 130.651C55.679 130.794 55.765 130.967 55.9 131.098C56.1149 131.307 56.1087 131.498 55.9246 131.707C55.5256 132.166 55.0283 132.494 54.4206 132.625C54.1627 132.679 53.8558 132.679 53.6041 132.601C53.1683 132.47 52.757 132.262 52.3334 132.071C52.2106 132.017 52.0755 131.939 51.9957 131.838C51.4801 131.176 50.9706 130.514 50.7189 129.691C50.5102 129.041 50.2216 128.414 49.9515 127.782C49.8287 127.496 49.5771 127.317 49.2394 127.382C48.9079 127.448 48.8895 127.746 48.8711 128.003C48.7913 128.939 48.7299 129.876 48.6624 130.812C48.6562 130.878 48.6685 130.949 48.6808 131.015C48.8036 131.587 48.558 131.886 47.9503 131.88C47.5144 131.874 47.0786 131.868 46.6427 131.856C46.0779 131.844 45.7464 131.438 45.8692 130.836C46.2191 129.208 46.3235 127.561 46.2253 125.891C46.2007 125.462 46.3235 125.026 46.3419 124.591C46.3787 123.702 46.3971 122.813 46.4094 121.925C46.4156 121.251 46.3971 120.583 46.4156 119.909C46.434 119.414 46.6243 119.264 47.1338 119.27C47.8766 119.282 48.6255 119.288 49.3683 119.294V119.241H49.3745ZM48.5948 123.678C48.5887 123.678 48.5887 123.678 48.5887 123.678C48.5887 123.869 48.5887 124.06 48.5764 124.251C48.5703 124.495 48.6746 124.633 48.9325 124.674C49.4052 124.746 49.8656 124.835 50.3383 124.889C50.4733 124.907 50.6943 124.877 50.7434 124.794C51.0626 124.203 51.6151 123.947 52.1983 123.69C52.3579 123.619 52.5237 123.422 52.5789 123.249C52.757 122.676 52.4746 122.163 51.8975 121.907C51.8177 121.865 51.7502 121.776 51.6581 121.74C51.3941 121.638 51.124 121.483 50.8539 121.477C50.283 121.459 49.7121 121.549 49.1412 121.549C48.7667 121.549 48.6194 121.722 48.6133 122.038C48.5948 122.581 48.601 123.13 48.5948 123.678Z" fill="black"/>
<path fill-rule="evenodd" clip-rule="evenodd" d="M23.53 107.633C23.5423 106.631 23.5423 105.635 23.573 104.633C23.5791 104.46 23.7081 104.281 23.7756 104.108C23.8615 103.893 23.9843 103.679 24.0027 103.458C24.0764 102.599 24.1132 101.74 24.1623 100.881C24.1685 100.72 24.1807 100.547 24.1439 100.392C24.0764 100.136 24.1071 99.9208 24.3465 99.7836C24.6903 99.5868 25.0647 99.5152 25.4331 99.7001C25.697 99.8314 25.7707 100.058 25.7646 100.35C25.7461 101.09 25.7461 101.83 25.7707 102.563C25.783 102.999 25.8382 103.434 25.9426 103.858C25.9794 103.995 26.2372 104.168 26.3969 104.174C27.9807 104.227 29.5706 104.257 31.1606 104.287C31.4798 104.293 31.8113 104.263 32.1182 104.186C32.241 104.156 32.4006 103.953 32.4068 103.822C32.4313 102.879 32.4068 101.931 32.419 100.994C32.419 100.75 32.4374 100.493 32.5111 100.261C32.6155 99.9566 32.7874 99.7061 33.1925 99.9328C33.3092 99.9984 33.4933 99.9566 33.6407 99.9387C34.0826 99.8731 34.451 100.016 34.6167 100.41C34.7825 100.821 34.9359 101.263 34.9482 101.698C34.9789 103.255 35.0096 104.824 34.9359 106.381C34.8623 107.896 34.6474 109.405 34.5001 110.92C34.4939 110.985 34.4878 111.057 34.4939 111.123C34.5308 111.737 34.2177 112.041 33.567 112.011C33.0206 111.987 32.4743 111.964 31.9279 111.934C31.4245 111.904 31.2772 111.683 31.357 111.206C31.4245 110.83 31.4307 110.449 31.4368 110.073C31.4552 109.202 31.4737 108.325 31.4798 107.454C31.4859 107.043 31.2527 106.816 30.8352 106.792C29.3803 106.685 27.9254 106.583 26.4644 106.476C26.1636 106.452 26.0592 106.631 26.0531 106.882C26.0285 107.645 26.0224 108.415 25.9917 109.184C25.9733 109.715 25.9671 110.246 25.8996 110.777C25.8628 111.087 25.6356 111.302 25.3041 111.337C24.9665 111.379 24.635 111.421 24.2974 111.409C23.8308 111.397 23.6896 111.021 23.6283 110.675C23.5607 110.258 23.5607 109.828 23.5607 109.405C23.5546 108.814 23.573 108.23 23.5791 107.639H23.53V107.633Z" fill="black"/>
<path fill-rule="evenodd" clip-rule="evenodd" d="M42.7936 139.765C44.1134 139.777 45.4394 139.783 46.7592 139.819C46.9987 139.825 47.2565 139.908 47.4775 140.01C47.5757 140.063 47.6801 140.266 47.6616 140.374C47.6371 140.487 47.4775 140.642 47.3547 140.66C46.3357 140.857 45.3166 141.006 44.273 140.761C43.9599 140.69 43.5916 140.702 43.2785 140.773C42.8918 140.857 42.6585 141.131 42.6769 141.555C42.6892 141.966 42.6954 142.378 42.7138 142.783C42.7322 143.272 42.9102 143.421 43.4075 143.475C44.1564 143.553 44.9053 143.666 45.6604 143.75C45.9673 143.785 46.2743 143.773 46.5874 143.797C47.2012 143.851 47.3915 144.084 47.3486 144.668C47.3179 145.11 47.3056 145.545 47.2933 145.986C47.2933 146.541 47.0294 146.839 46.4584 146.845C46.0963 146.851 45.7341 146.78 45.3657 146.774C44.9176 146.762 44.4695 146.792 44.0275 146.774C43.6346 146.762 43.2417 146.726 42.8611 146.672C42.4498 146.625 42.2902 146.821 42.2595 147.173C42.2165 147.68 42.1858 148.181 42.1306 148.688C42.0937 149.064 42.2779 149.225 42.634 149.231C43.7144 149.243 44.7948 149.237 45.8814 149.249C46.3172 149.255 46.7592 149.249 47.1828 149.321C47.7599 149.41 48.0177 149.768 48.0177 150.341C48.0238 151.027 47.8028 151.39 47.2258 151.528C46.9495 151.593 46.6672 151.605 46.3909 151.611C45.4271 151.641 44.4572 151.689 43.4934 151.665C42.37 151.641 41.2527 151.557 40.1355 151.48C39.5584 151.438 39.3743 151.134 39.4295 150.585C39.4848 150.06 39.4541 149.529 39.4725 148.999C39.5154 147.633 39.5707 146.267 39.6198 144.901C39.6259 144.775 39.6137 144.62 39.6873 144.543C40.0372 144.149 39.9513 143.672 39.9881 143.213C40.0679 142.163 40.1662 141.119 40.2644 140.069C40.2951 139.723 40.5038 139.64 40.8537 139.67C41.4983 139.711 42.149 139.694 42.7936 139.705V139.765Z" fill="black"/>
<path fill-rule="evenodd" clip-rule="evenodd" d="M42.1921 111.898C40.6328 111.88 39.0735 111.862 37.5143 111.85C37.0846 111.85 36.8451 111.636 36.8083 111.117C36.7776 110.622 36.7715 110.132 36.7838 109.637C36.8145 108.224 36.8513 106.816 36.925 105.408C36.9434 105.021 37.0968 104.645 37.1582 104.257C37.2442 103.667 37.324 103.076 37.3669 102.48C37.4222 101.794 37.4283 101.09 37.4652 100.392C37.4836 100.022 37.7414 99.8672 38.0913 99.8731C39.6629 99.9149 41.2344 99.9626 42.8059 100.004C43.0576 100.01 43.3093 99.9745 43.561 99.9745C43.8004 99.9745 44.046 99.9626 44.2731 100.01C44.5494 100.058 44.8502 100.136 44.844 100.499C44.8256 100.839 44.5862 101.03 44.2608 101.048C43.4505 101.09 42.6402 101.102 41.8237 101.12C41.2344 101.132 40.6451 101.102 40.0619 101.132C39.9637 101.138 39.8102 101.376 39.8102 101.501C39.8286 102.116 39.8654 102.73 39.9391 103.345C39.9575 103.488 40.111 103.655 40.2522 103.732C40.3872 103.804 40.5837 103.786 40.7494 103.798C41.7746 103.864 42.7937 103.911 43.8188 103.989C44.5125 104.042 44.7335 104.412 44.5125 105.068C44.4573 105.229 44.4511 105.414 44.4389 105.587C44.4204 105.892 44.4389 106.196 44.3959 106.494C44.3406 106.911 44.0153 107.108 43.5917 107.09C42.4008 107.043 41.2098 107.007 40.0128 106.989C39.6629 106.983 39.405 107.144 39.3989 107.562C39.3928 107.997 39.3375 108.438 39.2945 108.868C39.27 109.142 39.3682 109.357 39.669 109.363C40.7126 109.411 41.7623 109.5 42.8059 109.452C43.4996 109.429 44.1442 109.506 44.7826 109.739C45.065 109.84 45.2123 110.031 45.2062 110.329C45.2062 110.383 45.2001 110.437 45.2001 110.49C45.1632 111.48 44.9545 111.707 43.9478 111.874C43.8373 111.892 43.7206 111.91 43.6163 111.91C43.1374 111.91 42.6586 111.898 42.1859 111.892V111.898H42.1921Z" fill="black"/>
<path fill-rule="evenodd" clip-rule="evenodd" d="M27.5571 131.57C26.5442 131.558 25.5312 131.564 24.5245 131.528C23.7019 131.504 23.4932 131.218 23.5239 130.406C23.573 128.808 23.6037 127.209 23.6282 125.611C23.6344 125.104 23.7264 124.639 23.9045 124.144C24.1255 123.529 24.0763 122.825 24.1255 122.157C24.1562 121.609 24.1316 121.06 24.1746 120.517C24.2237 119.801 24.4754 119.586 25.212 119.581C26.2802 119.575 27.3483 119.551 28.4165 119.575C29.2452 119.592 30.0678 119.646 30.8966 119.712C31.0685 119.724 31.271 119.789 31.3938 119.903C31.5289 120.028 31.6394 120.237 31.6394 120.41C31.6394 120.499 31.3938 120.642 31.2403 120.672C30.2397 120.875 29.233 120.809 28.22 120.756C27.7903 120.726 27.3545 120.773 26.9248 120.815C26.8327 120.821 26.6853 120.976 26.6915 121.06C26.7099 121.674 26.7774 122.288 26.7897 122.903C26.7958 123.273 26.98 123.416 27.3238 123.452C28.3981 123.559 29.4724 123.672 30.5467 123.78C31.2465 123.851 31.4736 124.132 31.3938 124.8C31.3508 125.187 31.3324 125.569 31.3079 125.951C31.271 126.5 30.958 126.774 30.4116 126.75C29.19 126.708 27.9684 126.679 26.7529 126.643C26.4582 126.631 26.2863 126.762 26.2679 127.036C26.2311 127.555 26.1942 128.08 26.2004 128.593C26.2065 128.987 26.4152 129.214 26.8695 129.214C28.1157 129.214 29.368 129.243 30.6142 129.255C30.7001 129.255 30.7799 129.243 30.8659 129.243C31.5289 129.255 31.9156 129.518 31.9709 129.971C32.0752 130.961 31.8481 131.426 31.0685 131.534C30.3993 131.629 29.7241 131.605 29.0488 131.617C28.5577 131.623 28.0666 131.605 27.5755 131.599V131.57H27.5571Z" fill="black"/>
<path fill-rule="evenodd" clip-rule="evenodd" d="M61.29 131.963C60.228 131.951 59.1537 131.933 58.0917 131.927C57.6313 131.927 57.3857 131.766 57.3857 131.307C57.398 130.108 57.4594 128.903 57.4901 127.704C57.5024 127.382 57.4655 127.06 57.4655 126.732C57.4655 126.243 57.4717 125.754 57.484 125.265C57.484 125.104 57.5085 124.943 57.5515 124.788C57.6374 124.472 57.8032 124.161 57.8277 123.833C57.9075 122.819 57.9382 121.811 57.9812 120.797C58.0058 120.153 58.2575 119.926 58.9266 119.95C60.8358 120.016 62.7388 120.058 64.648 120.135C64.8628 120.141 65.1452 120.278 65.268 120.445C65.5197 120.785 65.3294 121.108 64.8996 121.108C63.9052 121.113 62.9107 121.078 61.9223 121.078C61.4865 121.072 61.0506 121.108 60.6148 121.149C60.5411 121.155 60.4183 121.28 60.4183 121.352C60.4245 122.014 60.4306 122.682 60.4674 123.35C60.4797 123.732 60.8419 123.774 61.112 123.804C62.0758 123.923 63.0396 124.006 63.9972 124.102C64.1016 124.108 64.1998 124.108 64.298 124.126C65.1022 124.263 65.2618 124.466 65.1882 125.253C65.1452 125.676 65.1575 126.106 65.0715 126.518C65.0347 126.696 64.8628 126.899 64.6909 126.995C64.5252 127.09 64.2858 127.084 64.077 127.084C62.9414 127.066 61.8057 127.042 60.6639 127.001C60.2955 126.989 60.0807 127.09 60.0684 127.496C60.05 128.015 59.9886 128.528 59.9579 129.053C59.9395 129.464 60.1912 129.589 60.5779 129.589C61.8671 129.589 63.1562 129.601 64.4577 129.607C64.5252 129.607 64.5927 129.607 64.6664 129.607C65.4153 129.643 65.7959 129.953 65.8143 130.532C65.8266 131.498 65.5258 131.904 64.6971 131.939C63.5614 131.993 62.4257 132.005 61.2839 132.029V131.963H61.29Z" fill="black"/>
<path fill-rule="evenodd" clip-rule="evenodd" d="M39.6014 119.515C39.6259 119.521 39.6566 119.527 39.6812 119.521C41.2036 119.408 42.37 120.159 43.475 121.042C43.7083 121.227 43.8986 121.477 44.0827 121.722C44.3099 122.038 44.0213 122.491 43.5855 122.473C43.3768 122.461 43.1373 122.372 42.9716 122.253C42.6524 122.032 42.4068 121.686 42.0692 121.537C41.6149 121.334 41.087 121.257 40.5959 121.131C40.4731 121.102 40.3319 121.137 40.2153 121.096C38.8218 120.595 37.7966 121.358 36.7468 122.05C35.8935 122.611 35.3902 123.392 35.0955 124.34C34.9604 124.776 34.9973 125.11 35.2919 125.486C35.5743 125.832 35.7585 126.249 35.9549 126.655C36.2926 127.364 36.7407 127.967 37.4774 128.331C37.8334 128.51 38.1772 128.748 38.5578 128.868C39.939 129.291 41.1729 129.07 42.2534 128.068C42.5296 127.812 42.9286 127.579 43.297 127.531C44.1441 127.424 45.0588 128.325 44.979 129.112C44.9667 129.243 44.9422 129.41 44.8562 129.494C44.4756 129.87 44.095 130.257 43.6591 130.562C43.0882 130.961 42.4621 131.289 41.8605 131.647C41.7807 131.695 41.6824 131.737 41.5904 131.754C41.0317 131.844 40.467 131.933 39.9083 132.011C39.7426 132.035 39.5584 132.071 39.4049 132.035C38.2938 131.82 37.1336 131.743 36.1514 131.134C35.3472 130.639 34.5676 130.09 34.0396 129.285C33.8984 129.07 33.6038 128.915 33.5424 128.695C33.2109 127.472 32.6277 126.285 32.7996 124.985C32.8794 124.352 33.082 123.726 33.3337 123.141C33.5854 122.557 33.9291 122.002 34.3159 121.495C34.8254 120.833 35.5559 120.41 36.3171 120.052C36.5013 119.962 36.6855 119.867 36.8819 119.795C37.0845 119.718 37.2932 119.622 37.5081 119.604C38.2079 119.539 38.9077 119.503 39.6014 119.455C39.5953 119.473 39.6014 119.497 39.6014 119.515Z" fill="black"/>
<path fill-rule="evenodd" clip-rule="evenodd" d="M17.1273 131.086C16.6424 130.949 16.1144 130.794 15.5988 130.645C15.3716 130.579 15.1445 130.496 14.9173 130.46C14.4692 130.389 14.1684 130.162 13.8983 129.81C13.6527 129.488 13.3028 129.237 12.9713 128.999C12.6398 128.754 12.5907 128.528 12.7749 128.164C13.0573 127.609 13.3888 127.156 14.1009 127.215C14.3342 127.233 14.5858 127.335 14.7884 127.448C15.6294 127.919 16.4029 128.575 17.4343 128.575C17.864 128.575 18.306 128.408 18.7234 128.265C18.8462 128.229 18.9874 127.991 18.9567 127.889C18.883 127.621 18.7787 127.263 18.5638 127.132C18.085 126.834 17.5202 126.69 17.0168 126.434C16.1635 125.999 15.2366 125.635 14.5183 125.038C14.0456 124.645 13.5054 124.138 13.4011 123.41C13.3581 123.118 13.1125 122.807 13.1678 122.545C13.2906 121.919 13.5054 121.298 13.7387 120.696C13.929 120.207 14.3526 119.891 14.8007 119.628C16.1206 118.847 17.5141 118.561 19.0119 119.062C19.4601 119.211 19.8836 119.437 20.3256 119.598C20.9088 119.813 21.1175 120.308 21.3263 120.797C21.4429 121.072 21.4736 121.364 21.1973 121.585C20.8536 121.859 20.5528 122.241 20.0187 122.008C19.5215 121.787 18.9997 121.609 18.5208 121.352C17.6184 120.869 16.6915 121.143 16.0162 121.686C15.5681 122.038 15.6479 122.742 16.1021 123.135C16.7835 123.726 17.6553 123.923 18.4594 124.257C18.705 124.358 18.9444 124.466 19.1838 124.573C19.2575 124.609 19.3189 124.674 19.3987 124.698C20.608 125.092 21.271 125.963 21.6393 127.084C21.799 127.549 21.7744 128.033 21.4552 128.456C21.4245 128.498 21.3815 128.54 21.3631 128.593C21.0009 129.685 20.0862 130.245 19.1102 130.669C18.527 130.937 17.8333 130.955 17.1273 131.086Z" fill="black"/>
<path fill-rule="evenodd" clip-rule="evenodd" d="M32.333 147.4C32.64 146.965 32.8733 146.631 33.1004 146.302C33.1495 146.237 33.1802 146.153 33.2416 146.094C33.9414 145.36 34.3404 144.471 34.6658 143.517C34.9236 142.742 35.3779 142.032 35.7278 141.286C35.8444 141.024 35.9488 140.761 36.0286 140.481C36.2619 139.658 36.6302 139.586 37.195 139.753C37.3853 139.807 37.5756 139.861 37.7536 139.932C38.1956 140.093 38.435 140.415 38.3491 140.857C38.2509 141.364 38.0912 141.853 37.9132 142.336C37.7168 142.879 37.4651 143.392 37.2318 143.923C36.6732 145.175 36.0839 146.41 35.2981 147.561C34.8254 148.253 34.5983 149.106 34.1931 149.851C33.8616 150.466 33.5547 151.134 32.8671 151.486C32.1734 151.832 31.6639 151.629 31.1912 151.038C30.7738 150.508 30.5773 149.917 30.3502 149.315C30.0924 148.617 29.7609 147.943 29.4662 147.257C29.4478 147.221 29.4355 147.179 29.4232 147.138C28.9874 145.205 28.1218 143.427 27.4281 141.59C27.2501 141.119 26.9984 140.892 26.5134 140.851C26.1697 140.821 25.9794 140.618 25.918 140.302C25.8566 139.962 25.7215 139.652 26.0285 139.306C26.937 138.268 28.4656 138.638 29.1716 139.878C29.5215 140.493 29.7793 141.167 30.074 141.811C30.4423 142.64 30.8229 143.463 31.1544 144.298C31.3508 144.781 31.4429 145.294 31.6271 145.778C31.8174 146.291 32.0568 146.78 32.333 147.4Z" fill="black"/>
<path fill-rule="evenodd" clip-rule="evenodd" d="M16.9063 99.0977C17.2071 99.1037 17.5079 99.0619 17.7903 99.1156C18.0911 99.1752 18.3797 99.3124 18.6682 99.4198C18.8585 99.4973 19.0427 99.6405 19.2391 99.6524C19.8468 99.7001 20.4669 99.7121 21.0807 99.7061C21.6271 99.7001 21.9647 99.8493 22.0016 100.153C22.0445 100.517 21.713 100.804 21.1667 100.833C20.7615 100.857 20.3564 100.845 19.9512 100.827C19.5583 100.804 19.4601 100.917 19.4724 101.299C19.5338 103.034 19.5338 104.758 19.2514 106.494C19.0181 107.937 19.0242 109.411 18.9628 110.872C18.9383 111.522 18.7664 111.731 18.0973 111.731C17.6062 111.731 17.1151 111.773 16.6301 111.761C16.495 111.755 16.2679 111.659 16.2311 111.564C16.1206 111.266 16.0162 110.938 16.0346 110.627C16.1513 108.826 16.3232 107.025 16.4459 105.223C16.5257 104.013 16.5626 102.796 16.624 101.579C16.6485 101.054 16.4459 100.887 15.8996 101.018C15.0401 101.221 14.1991 101.072 13.3581 100.929C13.2783 100.917 13.1801 100.833 13.1371 100.762C12.8547 100.142 13.2599 99.3661 13.9597 99.2826C14.9358 99.1693 15.918 99.1275 16.8941 99.05C16.9063 99.0679 16.9063 99.0858 16.9063 99.0977Z" fill="black"/>
<path fill-rule="evenodd" clip-rule="evenodd" d="M70.2586 119.527C70.5656 119.533 70.8787 119.515 71.1795 119.545C71.4434 119.569 71.7258 119.598 71.9407 119.73C72.53 120.088 73.1746 120.129 73.8437 120.153C74.3103 120.165 74.7829 120.272 75.2311 120.386C75.3539 120.416 75.5135 120.654 75.5012 120.785C75.4889 120.911 75.2986 121.113 75.1635 121.131C74.5926 121.209 74.0217 121.251 73.4508 121.257C73.0764 121.263 73.015 121.334 73.015 121.728C73.0088 123.231 73.0211 124.746 72.8431 126.231C72.6466 127.907 72.4256 129.577 72.4686 131.271C72.4932 132.017 72.2353 132.232 71.4925 132.154C71.1303 132.112 70.762 132.172 70.3998 132.196C69.8044 132.238 69.5956 132.106 69.5834 131.534C69.5772 130.699 69.6325 129.864 69.6939 129.035C69.7368 128.402 69.8658 127.782 69.9026 127.156C70.0069 125.515 70.0929 123.875 70.185 122.235C70.2095 121.716 70.0929 121.591 69.5772 121.579C69.1536 121.573 68.7301 121.597 68.3126 121.597C67.975 121.591 67.6374 121.603 67.3059 121.555C66.8086 121.483 66.5201 121.221 66.5201 120.893C66.514 120.368 66.8577 119.95 67.3611 119.873C68.3188 119.724 69.2826 119.586 70.2402 119.437C70.2464 119.461 70.2525 119.491 70.2586 119.527Z" fill="black"/>
<path fill-rule="evenodd" clip-rule="evenodd" d="M91.8243 61.6453C91.6524 61.5797 91.4314 61.5499 91.3209 61.4246C90.6456 60.7208 89.8844 60.1303 89.0373 59.6233C88.3067 59.1819 87.6315 58.6391 86.8948 58.2037C86.4405 57.9293 85.9003 57.7861 85.4215 57.5475C84.7953 57.2374 84.1078 57.1956 83.4387 57.0584C83.0396 56.9749 82.6713 56.7125 82.303 56.5037C82.2662 56.4799 82.3275 56.2711 82.3766 56.1637C82.3828 56.1339 82.524 56.122 82.5731 56.1518C83.3036 56.6648 84.3472 56.3486 85.0225 57.0226C85.0409 57.0405 85.0716 57.0644 85.0961 57.0584C85.6793 57.0405 86.1275 57.3626 86.6063 57.6072C87.1342 57.8696 87.6744 58.1142 88.1901 58.3945C88.6567 58.6391 89.1171 58.9194 89.5713 59.1878C89.6511 59.2356 89.7309 59.2952 89.8046 59.3608C90.4123 59.8917 91.0324 60.4166 91.6278 60.9653C91.7813 61.1085 91.8611 61.3172 91.9777 61.5021C91.9286 61.5499 91.8734 61.5976 91.8243 61.6453Z" fill="black"/>
<path fill-rule="evenodd" clip-rule="evenodd" d="M97.7237 85.5459C97.9262 87.4785 97.9262 89.417 97.6991 91.3854C97.3308 90.7471 97.3246 86.1543 97.7237 85.5459Z" fill="black"/>
<path fill-rule="evenodd" clip-rule="evenodd" d="M92.2051 61.7586C92.4997 61.9256 92.776 61.9972 92.9049 62.1761C93.3162 62.7309 93.838 63.2319 93.9485 63.9536C93.9546 64.0133 93.9301 64.0789 93.9239 64.1445C93.3899 64.0073 92.2787 62.5281 92.2051 61.7586Z" fill="black"/>
<path fill-rule="evenodd" clip-rule="evenodd" d="M59.2641 20.1011C59.08 20.3039 58.9388 20.4649 58.7976 20.626C58.6932 20.5067 58.4784 20.3278 58.5029 20.28C58.6073 20.1011 58.7853 19.9579 58.9388 19.8029C59.0309 19.8804 59.1168 19.9579 59.2641 20.1011Z" fill="black"/>
<path fill-rule="evenodd" clip-rule="evenodd" d="M58.4047 17.0591C58.2881 17.1784 58.196 17.2678 58.1162 17.3513C58.0426 17.2559 57.9014 17.1605 57.9014 17.071C57.9075 16.9577 58.0426 16.8563 58.1162 16.7489C58.196 16.8384 58.282 16.9278 58.4047 17.0591Z" fill="black"/>
</g>
<defs>
<clipPath id="clip0_10_178">
<rect width="98" height="167" fill="white"/>
</clipPath>
</defs>
</svg>
